HIERARCHY
ROOT Hips
{
	OFFSET 0.000000 0.000000 0.000000
	CHANNELS 6 Xposition Yposition Zposition Zrotation Yrotation Xrotation 
	JOINT LHipJoint
	{
		OFFSET 0.000000 0.000000 0.000000
		CHANNELS 3 Zrotation Yrotation Xrotation
		JOINT LeftUpLeg
		{
			OFFSET 1.363060 -1.794630 0.839290
			CHANNELS 3 Zrotation Yrotation Xrotation
			JOINT LeftLeg
			{
				OFFSET 2.448110 -6.726130 0.000000
				CHANNELS 3 Zrotation Yrotation Xrotation
				JOINT LeftFoot
				{
					OFFSET 2.562200 -7.039590 0.000000
					CHANNELS 3 Zrotation Yrotation Xrotation
					JOINT LeftToeBase
					{
						OFFSET 0.157640 -0.433110 2.322550
						CHANNELS 3 Zrotation Yrotation Xrotation
						End Site
						{
							OFFSET 0.000000 0.000000 0.000000
						}
					}
				}
			}
		}
	}
	JOINT RHipJoint
	{
		OFFSET 0.000000 0.000000 0.000000
		CHANNELS 3 Zrotation Yrotation Xrotation
		JOINT RightUpLeg
		{
			OFFSET -1.305520 -1.794630 0.839290
			CHANNELS 3 Zrotation Yrotation Xrotation
			JOINT RightLeg
			{
				OFFSET -2.542530 -6.985550 0.000000
				CHANNELS 3 Zrotation Yrotation Xrotation
				JOINT RightFoot
				{
					OFFSET -2.568260 -7.056230 0.000000
					CHANNELS 3 Zrotation Yrotation Xrotation
					JOINT RightToeBase
					{
						OFFSET -0.164730 -0.452590 2.363150
						CHANNELS 3 Zrotation Yrotation Xrotation
						End Site
						{
							OFFSET 0.000000 0.000000 0.000000
						}
					}
				}
			}
		}
	}
	JOINT LowerBack
	{
		OFFSET 0.000000 0.000000 0.000000
		CHANNELS 3 Zrotation Yrotation Xrotation
		JOINT Spine
		{
			OFFSET 0.028270 2.035590 -0.193380
			CHANNELS 3 Zrotation Yrotation Xrotation
			JOINT Spine1
			{
				OFFSET 0.056720 2.048850 -0.042750
				CHANNELS 3 Zrotation Yrotation Xrotation
				JOINT Neck
				{
					OFFSET 0.000000 0.000000 0.000000
					CHANNELS 3 Zrotation Yrotation Xrotation
					JOINT Neck1
					{
						OFFSET -0.054170 1.746240 0.172020
						CHANNELS 3 Zrotation Yrotation Xrotation
						JOINT Head
						{
							OFFSET 0.104070 1.761360 -0.123970
							CHANNELS 3 Zrotation Yrotation Xrotation
							End Site
							{
								OFFSET 0.000000 0.000000 0.000000
							}
						}
					}
				}
				JOINT LeftShoulder
				{
					OFFSET 0.000000 0.000000 0.000000
					CHANNELS 3 Zrotation Yrotation Xrotation
					JOINT LeftArm
					{
						OFFSET 3.362410 1.200890 -0.311210
						CHANNELS 3 Zrotation Yrotation Xrotation
						JOINT LeftForeArm
						{
							OFFSET 4.983000 -0.000000 -0.000000
							CHANNELS 3 Zrotation Yrotation Xrotation
							JOINT LeftHand
							{
								OFFSET 3.483560 -0.000000 -0.000000
								CHANNELS 3 Zrotation Yrotation Xrotation
								JOINT LeftFingerBase
								{
									OFFSET 0.000000 0.000000 0.000000
									CHANNELS 3 Zrotation Yrotation Xrotation
									JOINT LeftHandIndex1
									{
										OFFSET 0.715260 -0.000000 -0.000000
										CHANNELS 3 Zrotation Yrotation Xrotation
										End Site
										{
											OFFSET 0.000000 0.000000 0.000000
										}
									}
								}
								JOINT LThumb
								{
									OFFSET 0.000000 0.000000 0.000000
									CHANNELS 3 Zrotation Yrotation Xrotation
									End Site
									{
										OFFSET 0.000000 0.000000 0.000000
									}
								}
							}
						}
					}
				}
				JOINT RightShoulder
				{
					OFFSET 0.000000 0.000000 0.000000
					CHANNELS 3 Zrotation Yrotation Xrotation
					JOINT RightArm
					{
						OFFSET -3.136600 1.374050 -0.404650
						CHANNELS 3 Zrotation Yrotation Xrotation
						JOINT RightForeArm
						{
							OFFSET -5.241900 -0.000000 -0.000000
							CHANNELS 3 Zrotation Yrotation Xrotation
							JOINT RightHand
							{
								OFFSET -3.444170 -0.000000 -0.000000
								CHANNELS 3 Zrotation Yrotation Xrotation
								JOINT RightFingerBase
								{
									OFFSET 0.000000 0.000000 0.000000
									CHANNELS 3 Zrotation Yrotation Xrotation
									JOINT RightHandIndex1
									{
										OFFSET -0.622530 -0.000000 -0.000000
										CHANNELS 3 Zrotation Yrotation Xrotation
										End Site
										{
											OFFSET 0.000000 0.000000 0.000000
										}
									}
								}
								JOINT RThumb
								{
									OFFSET 0.000000 0.000000 0.000000
									CHANNELS 3 Zrotation Yrotation Xrotation
									End Site
									{
										OFFSET 0.000000 0.000000 0.000000
									}
								}
							}
						}
					}
				}
			}
		}
	}
}
MOTION
Frames: 6
Frame Time: 0.008333
0.259627 17.698210 0.612587 -2.301614 -0.720501 19.493860 0.573319 0.328130 0.604348 -11.671224 3.423574 -43.579096 4.482966 15.121383 44.263801 6.095544 -9.784780 9.676494 0.603100 -4.971200 -13.826400 -1.221456 -0.943405 1.093661 18.846619 -3.482800 -46.616722 -3.904558 -15.206084 44.885991 -6.190549 17.755905 13.970272 -0.800600 -5.710800 15.947600 0.407926 -0.597255 7.385040 2.845396 -0.778533 -9.492018 1.124943 -0.010799 -17.226151 -1.286867 -1.996674 -15.801735 1.993400 -1.070815 23.383860 -2.167900 0.296400 9.322200 -11.032365 -2.783404 -0.549167 -56.284150 14.490576 -18.282717 48.868167 -49.602165 -29.026952 1.160306 -1.463445 13.313779 25.311673 20.125981 9.278200 -7.125000 0.000000 0.000000 -5.117900 53.382700 -1.057300 14.008192 5.888465 2.943804 29.514627 -15.195252 -6.923541 -43.419151 44.447514 -25.356370 -1.034566 2.027320 4.867793 4.562533 -3.148023 -0.512400 7.125000 0.000000 0.000000 26.123600 -33.997200 7.751200 
0.261999 17.702090 0.612048 -2.353747 -0.765806 19.478894 0.561386 0.331075 0.606260 -11.612352 3.409670 -43.517247 4.477153 15.111364 44.219585 6.017428 -9.532476 9.617039 0.667500 -5.225000 -14.551400 -1.201679 -0.941986 1.097230 18.895546 -3.507735 -46.587060 -3.875659 -15.178645 44.804467 -6.186614 17.693502 13.998910 -0.765300 -5.586600 15.589500 0.369662 -0.578597 7.336973 2.840884 -0.758795 -9.488606 1.136451 0.002754 -17.199984 -1.192275 -2.004266 -15.833033 1.909915 -1.071339 23.444359 -2.216200 0.299200 9.353600 -11.030303 -2.790177 -0.550366 -56.391792 14.499258 -18.253206 48.790130 -49.570893 -28.943515 1.144564 -1.446959 13.177565 24.830808 21.131028 9.469900 -7.125000 0.000000 0.000000 -5.918600 54.339500 -1.361900 14.009532 5.916883 2.932712 29.730638 -14.950512 -7.708064 -43.557810 44.493702 -25.462396 -1.032877 2.021194 5.304221 4.466388 -3.142100 -0.502800 7.125000 0.000000 0.000000 26.054400 -33.983300 7.736300 
0.264370 17.707048 0.609893 -2.432750 -0.805027 19.488377 0.560620 0.328436 0.601838 -11.528430 3.391349 -43.497380 4.472275 15.108202 44.187448 5.992257 -9.447519 9.621986 0.661400 -5.201500 -14.484300 -1.179764 -0.937513 1.102557 18.963920 -3.492322 -46.554583 -3.832593 -15.139017 44.685228 -6.169161 17.561402 14.048958 -0.712600 -5.394900 15.038400 0.360636 -0.552563 7.367671 2.855713 -0.722765 -9.549933 1.165031 0.028085 -17.335466 -1.188974 -2.016627 -15.710254 1.878746 -1.088778 23.481449 -2.230200 0.292200 9.344700 -11.029759 -2.795053 -0.553803 -56.481817 14.622724 -18.207911 48.691808 -49.542957 -28.860742 1.132491 -1.449308 13.024399 24.050006 21.688168 9.338000 -7.125000 0.000000 0.000000 -6.914300 54.766400 -1.664700 14.012062 5.927639 2.919530 29.936649 -14.808259 -8.384296 -43.714627 44.551357 -25.580643 -1.031017 2.014978 5.792772 4.222422 -2.999653 -0.467200 7.125000 0.000000 0.000000 25.835200 -33.854300 7.748500 
0.266094 17.711251 0.609462 -2.598620 -0.807814 19.506073 0.571512 0.327730 0.589324 -11.351228 3.374546 -43.468229 4.463523 15.105749 44.132352 5.974325 -9.373628 9.670808 0.634200 -5.095300 -14.180600 -1.152222 -0.932661 1.115265 19.135460 -3.491012 -46.531183 -3.787443 -15.094617 44.586985 -6.167558 17.608958 14.172157 -0.732700 -5.469000 15.251100 0.431634 -0.525054 7.332568 2.893697 -0.669802 -9.581114 1.177595 0.052602 -17.381081 -1.144607 -2.029538 -15.626896 1.822177 -1.106688 23.500543 -2.261800 0.284600 9.335500 -11.027004 -2.803377 -0.556351 -56.591844 14.638209 -18.222908 48.650211 -49.535263 -28.829942 1.125210 -1.456407 12.874035 23.309320 21.996385 9.120600 -7.125000 0.000000 0.000000 -7.793800 54.939700 -1.911200 14.015183 5.942084 2.909739 30.124530 -14.655365 -8.974527 -43.903152 44.620371 -25.716918 -1.028843 2.009827 6.167066 3.790516 -2.893255 -0.420300 7.125000 0.000000 0.000000 25.483200 -33.772400 7.678600 
0.268465 17.717502 0.609893 -2.733986 -0.827482 19.502565 0.571797 0.330003 0.582800 -11.202920 3.365161 -43.413520 4.458067 15.101515 44.083922 5.930878 -9.223761 9.679741 0.667000 -5.223000 -14.545800 -1.121715 -0.928758 1.126774 19.255330 -3.485177 -46.475264 -3.735177 -15.044720 44.469671 -6.168634 17.677191 14.351759 -0.776200 -5.625300 15.701000 0.478059 -0.514068 7.258517 2.936812 -0.642641 -9.576320 1.211791 0.067537 -17.340474 -1.071861 -2.012049 -15.596677 1.731070 -1.073306 23.501173 -2.308100 0.298700 9.331300 -11.022187 -2.815677 -0.557341 -56.734072 14.586308 -18.307925 48.642769 -49.536188 -28.824587 1.115621 -1.457744 12.715689 22.473048 22.630944 8.967100 -7.125000 0.000000 0.000000 -8.907500 55.422100 -2.292000 14.019877 5.965704 2.901151 30.322660 -14.425938 -9.501250 -44.062883 44.671566 -25.808451 -1.025873 2.004233 6.410477 3.119467 -2.754928 -0.353000 7.125000 0.000000 0.000000 24.938200 -33.677900 7.546800 
0.271698 17.723106 0.610863 -2.754601 -0.864208 19.462274 0.547178 0.334919 0.590733 -11.169639 3.344036 -43.324987 4.454290 15.089936 44.048011 5.830624 -8.920878 9.608836 0.756400 -5.554500 -15.497200 -1.094171 -0.928568 1.131599 19.252768 -3.520297 -46.396381 -3.693745 -15.003672 44.347452 -6.179373 17.670114 14.415628 -0.755200 -5.550300 15.485000 0.414534 -0.491417 7.194966 2.944941 -0.619405 -9.549612 1.260273 0.089311 -17.269859 -0.957572 -1.994718 -15.596667 1.614825 -1.041027 23.486445 -2.370800 0.312100 9.326900 -11.018384 -2.826695 -0.555246 -56.820276 14.502505 -18.338936 48.627997 -49.538103 -28.827011 1.109669 -1.471782 12.502045 21.438998 22.889415 8.583700 -7.125000 0.000000 0.000000 -10.088700 55.480200 -2.614500 14.021217 5.990613 2.889707 30.596955 -14.232677 -10.123564 -44.263894 44.742538 -25.932162 -1.022729 1.996022 6.715303 2.389860 -2.536454 -0.279500 7.125000 0.000000 0.000000 24.326800 -33.508600 7.439000 
